	<svg
						width="1289"
						height="875"
						viewBox="0 0 1289 875"
						fill="none"
						xmlns="http://www.w3.org/2000/svg"
					>
						<g filter="url(#filter0_dd_1_31)">
							<rect
								x="619"
								y="828.864"
								width="120"
								height="997.881"
								transform="rotate(-120 619 828.864)"
								fill="url(#paint0_linear_1_31)"
								shape-rendering="crispEdges"
							/>
						</g>
						<g opacity="0.3">
							<path
								opacity="0.3"
								d="M1168.93 556.146V547.437L1166.54 546.095C1165.86 550.197 1161.03 552.919 1156.97 553.482L1129.43 569.598L1117.42 573.933L1079.05 554.124L1079.94 553.619C1076.66 552.083 1074.89 548.584 1073.12 545.376L1070.54 546.912L1069 547.359V556.282C1069.1 557.296 1069.47 558.266 1070.06 559.095C1070.66 559.924 1071.46 560.583 1072.38 561.006L1110.88 583.206C1113.41 584.481 1116.2 585.146 1119.04 585.146C1121.87 585.146 1124.67 584.481 1127.2 583.206L1165.63 561.006C1166.54 560.588 1167.33 559.943 1167.92 559.133C1168.51 558.323 1168.88 557.374 1168.99 556.379C1169 556.302 1169 556.223 1168.99 556.146H1168.93Z"
								fill="url(#paint1_linear_1_31)"
							/>
							<path
								opacity="0.3"
								d="M1156.96 553.482L1129.43 569.598L1118.98 573.37V585.15C1121.82 585.209 1124.63 584.54 1127.14 583.206L1165.57 561.006C1166.48 560.588 1167.27 559.943 1167.86 559.133C1168.45 558.323 1168.82 557.374 1168.93 556.379C1168.94 556.302 1168.94 556.223 1168.93 556.146V547.437L1166.74 546.212H1166.5C1165.77 550.255 1160.99 552.841 1156.96 553.482Z"
								fill="#0F054C"
							/>
							<path
								opacity="0.3"
								d="M1110.88 574.342L1072.44 552.141C1067.93 549.556 1067.93 545.318 1072.44 542.713L1110.88 520.512C1113.41 519.237 1116.2 518.573 1119.04 518.573C1121.87 518.573 1124.67 519.237 1127.2 520.512L1165.63 542.713C1170.12 545.318 1170.12 549.556 1165.63 552.141L1127.2 574.342C1124.67 575.626 1121.87 576.295 1119.04 576.295C1116.2 576.295 1113.4 575.626 1110.88 574.342Z"
								fill="url(#paint2_linear_1_31)"
							/>
							<g opacity="0.3">
								<path
									opacity="0.3"
									d="M1110.88 574.342L1072.44 552.141C1067.93 549.556 1067.93 545.318 1072.44 542.713L1110.88 520.512C1113.41 519.237 1116.2 518.573 1119.04 518.573C1121.87 518.573 1124.67 519.237 1127.2 520.512L1165.63 542.713C1170.12 545.318 1170.12 549.556 1165.63 552.141L1127.2 574.342C1124.67 575.626 1121.87 576.295 1119.04 576.295C1116.2 576.295 1113.4 575.626 1110.88 574.342Z"
									fill="#0F054C"
								/>
							</g>
						</g>
						<path
							d="M1118.98 546.29C1116.45 546.335 1113.96 545.74 1111.73 544.56L1073.3 522.359C1072.39 522.04 1071.6 521.447 1071.05 520.662C1070.49 519.877 1070.19 518.938 1070.19 517.975C1070.19 517.013 1070.49 516.074 1071.05 515.289C1071.6 514.504 1072.39 513.91 1073.3 513.592L1111.73 491.391C1113.97 490.26 1116.45 489.67 1118.97 489.67C1121.48 489.67 1123.96 490.26 1126.21 491.391L1164.66 513.592C1165.57 513.91 1166.35 514.504 1166.91 515.289C1167.47 516.074 1167.76 517.013 1167.76 517.975C1167.76 518.938 1167.47 519.877 1166.91 520.662C1166.35 521.447 1165.57 522.04 1164.66 522.359L1126.23 544.56C1123.99 545.74 1121.5 546.335 1118.98 546.29ZM1118.98 490.341C1116.57 490.293 1114.19 490.855 1112.06 491.974L1073.63 514.175C1072.83 514.44 1072.13 514.95 1071.64 515.632C1071.15 516.314 1070.88 517.134 1070.88 517.975C1070.88 518.817 1071.15 519.636 1071.64 520.319C1072.13 521.001 1072.83 521.511 1073.63 521.776L1112.06 543.976C1114.2 545.059 1116.57 545.624 1118.97 545.624C1121.37 545.624 1123.73 545.059 1125.88 543.976L1164.31 521.737C1165.11 521.472 1165.8 520.962 1166.29 520.28C1166.79 519.598 1167.05 518.778 1167.05 517.936C1167.05 517.095 1166.79 516.275 1166.29 515.593C1165.8 514.911 1165.11 514.401 1164.31 514.136L1125.88 491.935C1123.75 490.832 1121.37 490.283 1118.98 490.341Z"
							fill="#42E8E0"
						/>
						<path
							opacity="0.4"
							d="M1168.93 509.451V496.29L1166.54 494.949C1165.86 499.07 1161.03 501.772 1156.97 502.336L1129.43 518.452L1117.42 522.787L1079.05 502.977L1079.94 502.472C1076.66 500.936 1074.89 497.437 1073.12 494.229L1070.54 495.765L1069 496.212V509.587C1069.1 510.601 1069.47 511.571 1070.06 512.4C1070.66 513.229 1071.46 513.888 1072.38 514.311L1110.88 536.511C1113.4 537.795 1116.2 538.465 1119.04 538.465C1121.87 538.465 1124.67 537.795 1127.2 536.511L1165.63 514.311C1166.54 513.893 1167.33 513.248 1167.92 512.438C1168.51 511.628 1168.88 510.679 1168.99 509.684C1169 509.607 1169 509.528 1168.99 509.451H1168.93Z"
							fill="#42E8E0"
						/>
						<path
							d="M1168.93 497.748V489.039L1166.54 487.697C1165.86 491.819 1161.03 494.521 1156.97 495.085L1129.43 511.2L1117.42 515.535L1079.05 495.726L1079.94 495.221C1076.66 493.685 1074.89 490.186 1073.12 486.978L1070.54 488.533L1069 488.961V497.884C1069.1 498.898 1069.47 499.868 1070.06 500.697C1070.66 501.526 1071.46 502.185 1072.38 502.608L1110.88 524.808C1113.4 526.092 1116.2 526.762 1119.04 526.762C1121.87 526.762 1124.67 526.092 1127.2 524.808L1165.63 502.608C1166.54 502.19 1167.33 501.545 1167.92 500.735C1168.51 499.925 1168.88 498.976 1168.99 497.981C1169 497.904 1169 497.825 1168.99 497.748H1168.93Z"
							fill="url(#paint3_linear_1_31)"
						/>
						<path
							opacity="0.3"
							d="M1156.96 495.084L1129.43 511.2L1118.98 514.971V526.752C1121.82 526.81 1124.63 526.141 1127.14 524.808L1165.57 502.607C1166.48 502.19 1167.27 501.545 1167.86 500.735C1168.45 499.924 1168.82 498.976 1168.93 497.981C1168.94 497.903 1168.94 497.825 1168.93 497.747V489.038L1166.74 487.813H1166.5C1165.77 491.857 1160.99 494.52 1156.96 495.084Z"
							fill="#0F054C"
						/>
						<path
							d="M1110.88 515.904L1072.44 493.704C1067.93 491.099 1067.93 486.861 1072.44 484.275L1110.88 462.133C1113.4 460.849 1116.2 460.18 1119.04 460.18C1121.87 460.18 1124.67 460.849 1127.2 462.133L1165.63 484.334C1170.12 486.919 1170.12 491.157 1165.63 493.762L1127.14 515.904C1124.62 517.17 1121.83 517.829 1119.01 517.829C1116.18 517.829 1113.4 517.17 1110.88 515.904Z"
							fill="url(#paint4_linear_1_31)"
						/>
						<path
							d="M1165.57 493.763L1127.14 515.905C1124.61 517.18 1121.81 517.844 1118.98 517.844C1116.14 517.844 1113.35 517.18 1110.82 515.905L1072.38 493.705C1071.54 493.309 1070.81 492.727 1070.23 492.002C1069.65 491.278 1069.24 490.43 1069.04 489.525C1068.77 491.469 1069.89 493.413 1072.38 494.774L1110.87 517.033C1113.4 518.317 1116.2 518.986 1119.04 518.986C1121.87 518.986 1124.67 518.317 1127.2 517.033L1165.63 494.832C1166.66 494.405 1167.53 493.672 1168.12 492.733C1168.72 491.794 1169.01 490.694 1168.95 489.583C1168.75 490.492 1168.33 491.341 1167.75 492.066C1167.16 492.79 1166.42 493.371 1165.57 493.763Z"
							fill="white"
						/>
						<path
							d="M1099.68 488L1012.25 435.683L984.458 451.718H984.135L930 419.81L930.323 419L984.458 450.746L1012.25 434.711L1012.9 435.035L1100 487.19L1099.68 488Z"
							fill="url(#paint5_linear_1_31)"
						/>
						<g opacity="0.3">
							<path
								opacity="0.3"
								d="M665 555.204V546.494L662.589 545.153C661.909 549.274 657.068 551.977 653.024 552.54L625.459 568.656L613.445 572.991L575.05 553.182L575.945 552.676C572.659 551.141 570.89 547.641 569.121 544.434L566.536 545.989L565 546.417V555.34C565.102 556.354 565.468 557.324 566.061 558.153C566.655 558.982 567.455 559.641 568.383 560.064L606.835 582.264C609.365 583.548 612.162 584.218 615 584.218C617.837 584.218 620.634 583.548 623.165 582.264L661.617 560.064C662.531 559.649 663.323 559.005 663.916 558.194C664.508 557.384 664.882 556.434 665 555.437C665 555.437 665 555.281 665 555.204Z"
								fill="url(#paint6_linear_1_31)"
							/>
							<path
								opacity="0.3"
								d="M653.024 552.578L625.458 568.694L614.999 572.466V584.246C617.842 584.305 620.653 583.636 623.164 582.302L661.616 560.102C662.531 559.687 663.323 559.043 663.915 558.233C664.508 557.422 664.881 556.472 664.999 555.475C664.999 555.475 664.999 555.319 664.999 555.242V546.533L662.783 545.308H662.55C661.811 549.313 657.029 551.976 653.024 552.578Z"
								fill="#0F054C"
							/>
							<path
								opacity="0.3"
								d="M606.835 573.419L568.383 551.218C563.872 548.613 563.872 544.375 568.383 541.79L606.835 519.531C609.365 518.247 612.162 517.577 615 517.577C617.837 517.577 620.634 518.247 623.165 519.531L661.617 541.731C666.108 544.317 666.108 548.555 661.617 551.16L623.165 573.419C620.632 574.694 617.835 575.358 615 575.358C612.164 575.358 609.368 574.694 606.835 573.419Z"
								fill="url(#paint7_linear_1_31)"
							/>
							<g opacity="0.3">
								<path
									opacity="0.3"
									d="M606.835 573.419L568.383 551.218C563.873 548.613 563.873 544.375 568.383 541.79L606.835 519.531C609.365 518.247 612.163 517.577 615 517.577C617.838 517.577 620.635 518.247 623.165 519.531L661.617 541.731C666.108 544.317 666.108 548.555 661.617 551.16L623.165 573.419C620.632 574.694 617.836 575.358 615 575.358C612.164 575.358 609.368 574.694 606.835 573.419Z"
									fill="#0F054C"
								/>
							</g>
						</g>
						<path
							d="M615 541.11C612.474 541.165 609.977 540.569 607.749 539.379L569.296 517.179C568.395 516.856 567.615 516.262 567.064 515.479C566.513 514.696 566.217 513.762 566.217 512.805C566.217 511.847 566.513 510.913 567.064 510.13C567.615 509.347 568.395 508.754 569.296 508.431L607.749 486.23C609.996 485.09 612.48 484.495 615 484.495C617.52 484.495 620.004 485.09 622.251 486.23L660.703 508.431C661.605 508.754 662.384 509.347 662.936 510.13C663.487 510.913 663.783 511.847 663.783 512.805C663.783 513.762 663.487 514.696 662.936 515.479C662.384 516.262 661.605 516.856 660.703 517.179L622.251 539.379C620.022 540.569 617.525 541.165 615 541.11ZM608.079 538.796C610.222 539.879 612.589 540.444 614.99 540.444C617.391 540.444 619.758 539.879 621.901 538.796L660.353 516.596C661.212 516.4 661.979 515.918 662.529 515.229C663.078 514.541 663.377 513.686 663.377 512.805C663.377 511.924 663.078 511.069 662.529 510.38C661.979 509.691 661.212 509.21 660.353 509.014L621.901 486.814C619.761 485.721 617.393 485.152 614.99 485.152C612.587 485.152 610.219 485.721 608.079 486.814L569.627 509.014C568.768 509.21 568.001 509.691 567.451 510.38C566.902 511.069 566.603 511.924 566.603 512.805C566.603 513.686 566.902 514.541 567.451 515.229C568.001 515.918 568.768 516.4 569.627 516.596L608.079 538.796Z"
							fill="#42E8E0"
						/>
						<path
							opacity="0.4"
							d="M665 504.29V491.11L662.589 489.768C661.909 493.89 657.068 496.592 653.024 497.155L625.458 513.271L613.445 517.587L575.05 497.778L575.945 497.272C572.659 495.736 570.89 492.237 569.121 489.03L566.536 490.585L565 491.012V504.407C565.093 505.421 565.456 506.392 566.051 507.219C566.646 508.046 567.451 508.7 568.383 509.111L606.835 531.312C609.365 532.596 612.162 533.265 615 533.265C617.837 533.265 620.634 532.596 623.165 531.312L661.617 509.111C662.531 508.696 663.323 508.052 663.916 507.242C664.508 506.431 664.882 505.482 665 504.484C665 504.484 665 504.329 665 504.251V504.29Z"
							fill="#42E8E0"
						/>
						<path
							d="M665 492.568V483.859L662.589 482.517C661.909 486.638 657.068 489.341 653.024 489.904L625.458 506.02L613.445 510.355L575.05 490.546L575.945 490.04C572.659 488.505 570.89 485.006 569.121 481.817L566.536 483.353L565 483.781V492.723C565.105 493.734 565.472 494.7 566.066 495.525C566.659 496.35 567.458 497.006 568.383 497.428L606.835 519.628C609.365 520.912 612.162 521.582 615 521.582C617.837 521.582 620.634 520.912 623.165 519.628L661.617 497.428C662.531 497.013 663.323 496.369 663.916 495.559C664.508 494.748 664.882 493.798 665 492.801C665 492.801 665 492.645 665 492.568Z"
							fill="url(#paint8_linear_1_31)"
						/>
						<path
							d="M606.835 510.783L568.383 488.582C563.872 485.977 563.872 481.739 568.383 479.154L606.835 456.953C609.365 455.669 612.162 455 615 455C617.837 455 620.634 455.669 623.165 456.953L661.617 479.154C666.108 481.759 666.108 485.977 661.617 488.582L623.165 510.783C620.634 512.067 617.837 512.736 615 512.736C612.162 512.736 609.365 512.067 606.835 510.783Z"
							fill="url(#paint9_linear_1_31)"
						/>
						<path
							d="M615 506.739C612.719 506.79 610.463 506.255 608.449 505.184L578.414 487.843C577.593 487.552 576.882 487.013 576.379 486.301C575.876 485.589 575.607 484.739 575.607 483.868C575.607 482.996 575.876 482.146 576.379 481.434C576.882 480.723 577.593 480.184 578.414 479.892L608.449 462.552C610.478 461.518 612.723 460.978 615 460.978C617.277 460.978 619.522 461.518 621.551 462.552L651.586 479.892C652.408 480.184 653.118 480.723 653.621 481.434C654.124 482.146 654.394 482.996 654.394 483.868C654.394 484.739 654.124 485.589 653.621 486.301C653.118 487.013 652.408 487.552 651.586 487.843L621.551 505.184C619.537 506.255 617.281 506.79 615 506.739ZM608.779 504.601C610.704 505.579 612.832 506.089 614.99 506.089C617.149 506.089 619.277 505.579 621.201 504.601L651.256 487.26C651.977 487.032 652.607 486.581 653.054 485.971C653.501 485.361 653.742 484.624 653.742 483.868C653.742 483.112 653.501 482.375 653.054 481.765C652.607 481.155 651.977 480.703 651.256 480.476L621.201 463.154C619.277 462.176 617.149 461.666 614.99 461.666C612.832 461.666 610.704 462.176 608.779 463.154L578.744 480.495C578.069 480.789 577.485 481.257 577.051 481.851C576.617 482.446 576.349 483.145 576.276 483.878C576.352 484.612 576.62 485.312 577.054 485.91C577.487 486.507 578.07 486.979 578.744 487.28L608.779 504.601Z"
							fill="#5351AF"
						/>
						<path
							d="M661.617 488.583L623.164 510.783C620.634 512.067 617.837 512.737 614.999 512.737C612.162 512.737 609.365 512.067 606.835 510.783L568.382 488.583C567.543 488.187 566.806 487.605 566.226 486.88C565.647 486.156 565.24 485.309 565.039 484.403C564.994 485.517 565.29 486.618 565.888 487.559C566.485 488.501 567.355 489.237 568.382 489.671L606.835 511.872C609.367 513.147 612.164 513.811 614.999 513.811C617.835 513.811 620.631 513.147 623.164 511.872L661.617 489.671C662.643 489.239 663.512 488.502 664.107 487.56C664.701 486.618 664.992 485.516 664.941 484.403C664.742 485.307 664.34 486.154 663.763 486.878C663.187 487.603 662.453 488.186 661.617 488.583Z"
							fill="white"
						/>
						<path
							d="M619.709 503.441L706.839 453.308L734.723 468.352L735.046 468.35L789.002 437.768L788.674 437.002L734.718 467.43L706.834 452.386L706.189 452.697L619.382 502.675L619.709 503.441Z"
							fill="url(#paint10_linear_1_31)"
						/>
						<g opacity="0.3">
							<path
								opacity="0.3"
								d="M1167.9 202.896V194.187L1165.5 192.845C1164.82 196.947 1159.98 199.669 1155.94 200.232L1128.4 216.329L1116.4 220.683L1078.04 200.874L1078.93 200.349C1075.65 198.833 1073.88 195.314 1072.12 192.126L1069.53 193.662L1068 194.089V203.032C1068.09 204.047 1068.45 205.019 1069.05 205.846C1069.64 206.674 1070.45 207.326 1071.38 207.736L1109.79 229.937C1112.32 231.221 1115.12 231.89 1117.95 231.89C1120.79 231.89 1123.58 231.221 1126.11 229.937L1164.52 207.736C1165.44 207.322 1166.23 206.678 1166.82 205.867C1167.41 205.057 1167.79 204.107 1167.9 203.11V202.896Z"
								fill="url(#paint11_linear_1_31)"
							/>
							<path
								opacity="0.3"
								d="M1155.94 200.232L1128.4 216.329L1117.95 220.119V231.9C1120.79 231.959 1123.6 231.289 1126.11 229.956L1164.52 207.756C1165.44 207.341 1166.23 206.697 1166.82 205.886C1167.41 205.076 1167.78 204.126 1167.9 203.129V202.915V194.206L1165.71 192.981H1165.47C1164.7 197.005 1159.94 199.669 1155.94 200.232Z"
								fill="#0F054C"
							/>
							<path
								opacity="0.3"
								d="M1109.79 221.091L1071.48 198.891C1066.97 196.286 1066.97 192.067 1071.48 189.462L1109.79 167.184C1112.32 165.9 1115.12 165.231 1117.95 165.231C1120.79 165.231 1123.58 165.9 1126.11 167.184L1164.52 189.385C1169.03 191.99 1169.03 196.208 1164.52 198.813L1126.11 221.014C1123.59 222.31 1120.8 222.992 1117.96 223.006C1115.13 223.019 1112.33 222.363 1109.79 221.091Z"
								fill="url(#paint12_linear_1_31)"
							/>
							<g opacity="0.3">
								<path
									opacity="0.3"
									d="M1109.79 221.091L1071.48 198.891C1066.97 196.286 1066.97 192.067 1071.48 189.462L1109.79 167.184C1112.32 165.9 1115.12 165.231 1117.95 165.231C1120.79 165.231 1123.58 165.9 1126.11 167.184L1164.52 189.385C1169.03 191.99 1169.03 196.208 1164.52 198.813L1126.11 221.014C1123.59 222.31 1120.8 222.992 1117.96 223.006C1115.13 223.019 1112.33 222.363 1109.79 221.091Z"
									fill="#0F054C"
								/>
							</g>
						</g>
						<path
							d="M1117.95 194.498C1115.43 194.543 1112.94 193.948 1110.71 192.768L1072.29 170.567C1071.39 170.248 1070.6 169.655 1070.04 168.87C1069.49 168.085 1069.19 167.146 1069.19 166.183C1069.19 165.221 1069.49 164.282 1070.04 163.497C1070.6 162.712 1071.39 162.118 1072.29 161.8L1110.71 139.599C1112.96 138.467 1115.44 137.878 1117.95 137.878C1120.47 137.878 1122.95 138.467 1125.2 139.599L1163.61 161.8C1164.52 162.118 1165.31 162.712 1165.86 163.497C1166.42 164.282 1166.72 165.221 1166.72 166.183C1166.72 167.146 1166.42 168.085 1165.86 168.87C1165.31 169.655 1164.52 170.248 1163.61 170.567L1125.2 192.768C1122.97 193.948 1120.47 194.543 1117.95 194.498ZM1117.95 138.53C1115.55 138.488 1113.18 139.057 1111.06 140.182L1072.62 162.383C1071.83 162.648 1071.13 163.158 1070.64 163.84C1070.15 164.522 1069.88 165.342 1069.88 166.183C1069.88 167.025 1070.15 167.844 1070.64 168.527C1071.13 169.209 1071.83 169.719 1072.62 169.984L1111.06 192.184C1113.2 193.267 1115.56 193.832 1117.96 193.832C1120.36 193.832 1122.73 193.267 1124.87 192.184L1163.28 169.984C1164.08 169.719 1164.77 169.209 1165.27 168.527C1165.76 167.844 1166.02 167.025 1166.02 166.183C1166.02 165.342 1165.76 164.522 1165.27 163.84C1164.77 163.158 1164.08 162.648 1163.28 162.383L1124.87 140.182C1122.74 139.057 1120.36 138.488 1117.95 138.53Z"
							fill="#42E8E0"
						/>
						<path
							opacity="0.4"
							d="M1167.9 157.659V144.498L1165.5 143.156C1164.82 147.258 1159.98 149.98 1155.94 150.544L1128.4 166.659L1116.4 171.072L1078.04 151.263L1078.93 150.757C1075.65 149.222 1073.88 145.722 1072.12 142.515L1069.53 144.051L1068 144.498V157.873C1068.12 158.883 1068.51 159.844 1069.12 160.659C1069.73 161.474 1070.54 162.115 1071.48 162.519L1109.79 184.68C1112.32 185.964 1115.12 186.634 1117.95 186.634C1120.79 186.634 1123.58 185.964 1126.11 184.68L1164.52 162.48C1165.44 162.065 1166.23 161.421 1166.82 160.611C1167.41 159.8 1167.79 158.85 1167.9 157.853V157.62V157.659Z"
							fill="#42E8E0"
						/>
						<path
							d="M1167.9 145.956V137.247L1165.5 135.905C1164.82 140.007 1159.98 142.729 1155.94 143.292L1128.4 159.408L1116.4 163.743L1078.04 143.856L1078.93 143.351C1075.65 141.815 1073.88 138.316 1072.12 135.108L1069.53 136.644L1068 137.091V146.014C1068.1 147.028 1068.47 147.998 1069.06 148.827C1069.65 149.656 1070.45 150.315 1071.38 150.738L1109.79 173.016C1112.33 174.291 1115.12 174.956 1117.95 174.956C1120.78 174.956 1123.58 174.291 1126.11 173.016L1164.52 150.816C1165.44 150.401 1166.23 149.757 1166.82 148.947C1167.41 148.136 1167.79 147.186 1167.9 146.189V145.956Z"
							fill="url(#paint13_linear_1_31)"
						/>
						<path
							opacity="0.3"
							d="M1155.94 143.293L1128.4 159.409L1117.95 163.18V174.961C1120.79 175.019 1123.6 174.35 1126.11 173.017L1164.52 150.816C1165.44 150.402 1166.23 149.758 1166.82 148.947C1167.41 148.137 1167.78 147.187 1167.9 146.19V145.956V137.247L1165.71 136.022H1165.47C1164.7 140.066 1159.94 142.729 1155.94 143.293Z"
							fill="#0F054C"
						/>
						<path
							d="M1078.93 143.428L1115.35 122.472C1116.16 122.065 1117.05 121.853 1117.96 121.853C1118.87 121.853 1119.76 122.065 1120.57 122.472L1156.33 143.137L1155.94 143.37C1159.98 142.806 1164.82 140.084 1165.49 135.983L1125.35 113.627L1113.7 110.536L1104.18 116.134L1072.14 135.263C1073.88 138.393 1075.65 141.912 1078.93 143.428Z"
							fill="url(#paint14_linear_1_31)"
						/>
						<path
							opacity="0.3"
							d="M1117.95 111.605L1113.68 110.458L1104.16 116.057L1072.12 135.186C1073.88 138.393 1075.65 141.893 1078.93 143.428L1115.35 122.472C1116.15 122.033 1117.04 121.811 1117.95 121.83V111.605Z"
							fill="#0F054C"
						/>
						<path
							d="M1109.79 164.152L1071.48 141.912C1066.97 139.327 1066.97 135.089 1071.48 132.484L1109.89 110.283C1112.42 109.008 1115.22 108.344 1118.05 108.344C1120.88 108.344 1123.68 109.008 1126.21 110.283L1164.62 132.484C1169.13 135.089 1169.13 139.327 1164.62 141.912L1126.21 164.113C1123.67 165.419 1120.86 166.104 1118 166.11C1115.15 166.117 1112.34 165.446 1109.79 164.152ZM1120.57 113.608C1119.76 113.201 1118.87 112.989 1117.96 112.989C1117.05 112.989 1116.16 113.201 1115.35 113.608L1076.93 135.808C1076.61 135.912 1076.33 136.115 1076.14 136.387C1075.94 136.66 1075.83 136.988 1075.83 137.324C1075.83 137.661 1075.94 137.989 1076.14 138.262C1076.33 138.534 1076.61 138.737 1076.93 138.841L1115.35 161.041C1116.16 161.448 1117.05 161.66 1117.96 161.66C1118.87 161.66 1119.76 161.448 1120.57 161.041L1158.99 138.841C1159.3 138.728 1159.57 138.521 1159.76 138.25C1159.95 137.979 1160.05 137.656 1160.05 137.324C1160.05 136.993 1159.95 136.67 1159.76 136.399C1159.57 136.128 1159.3 135.921 1158.99 135.808L1120.57 113.608Z"
							fill="url(#paint15_linear_1_31)"
						/>
						<path
							d="M1158.99 135.73L1120.57 113.53C1119.76 113.123 1118.87 112.911 1117.96 112.911C1117.05 112.911 1116.16 113.123 1115.35 113.53L1076.93 135.73C1075.96 136.294 1075.65 137.071 1075.96 137.791C1076.18 137.377 1076.52 137.038 1076.93 136.819L1115.35 114.696C1116.16 114.289 1117.05 114.077 1117.96 114.077C1118.87 114.077 1119.76 114.289 1120.57 114.696L1158.99 136.897C1159.4 137.116 1159.73 137.455 1159.94 137.869C1160.25 137.071 1159.94 136.294 1158.99 135.73Z"
							fill="white"
						/>
						<path
							d="M1164.53 141.912L1126.11 164.112C1123.58 165.397 1120.79 166.066 1117.95 166.066C1115.12 166.066 1112.32 165.397 1109.8 164.112L1071.48 141.912C1070.64 141.522 1069.9 140.944 1069.32 140.222C1068.74 139.501 1068.34 138.655 1068.14 137.752C1068.09 138.863 1068.39 139.961 1068.99 140.899C1069.58 141.837 1070.45 142.57 1071.48 143.001L1109.8 165.24C1112.32 166.524 1115.12 167.193 1117.95 167.193C1120.79 167.193 1123.58 166.524 1126.11 165.24L1164.53 143.039C1165.55 142.609 1166.42 141.876 1167.01 140.938C1167.61 140 1167.91 138.902 1167.87 137.791C1167.66 138.687 1167.25 139.525 1166.67 140.239C1166.09 140.953 1165.36 141.526 1164.53 141.912Z"
							fill="white"
						/>
						<path
							d="M1110.88 163.53L1072.47 141.329C1068.58 139.074 1068.58 135.497 1072.47 133.164L1110.88 110.964C1113.07 109.844 1115.49 109.261 1117.95 109.261C1120.41 109.261 1122.83 109.844 1125.02 110.964L1163.44 133.164C1167.32 135.419 1167.32 138.996 1163.44 141.329L1125.02 163.53C1122.83 164.649 1120.41 165.233 1117.95 165.233C1115.49 165.233 1113.07 164.649 1110.88 163.53ZM1121.64 112.986C1120.5 112.4 1119.23 112.095 1117.95 112.095C1116.67 112.095 1115.4 112.4 1114.26 112.986L1075.85 135.108C1075.4 135.258 1075.01 135.546 1074.73 135.929C1074.46 136.313 1074.31 136.774 1074.31 137.247C1074.31 137.72 1074.46 138.18 1074.73 138.564C1075.01 138.948 1075.4 139.235 1075.85 139.385L1114.2 161.586C1115.35 162.16 1116.61 162.46 1117.89 162.46C1119.17 162.46 1120.44 162.16 1121.58 161.586L1160.02 139.385C1160.47 139.235 1160.86 138.948 1161.13 138.564C1161.41 138.18 1161.56 137.72 1161.56 137.247C1161.56 136.774 1161.41 136.313 1161.13 135.929C1160.86 135.546 1160.47 135.258 1160.02 135.108L1121.64 112.986Z"
							fill="url(#paint16_linear_1_31)"
						/>
						<path
							opacity="0.4"
							d="M1120.57 113.53C1119.76 113.123 1118.87 112.911 1117.96 112.911C1117.06 112.911 1116.16 113.123 1115.35 113.53L1076.93 135.73C1076.61 135.834 1076.34 136.037 1076.14 136.309C1075.94 136.582 1075.83 136.91 1075.83 137.246C1075.83 137.583 1075.94 137.911 1076.14 138.184C1076.34 138.456 1076.61 138.659 1076.93 138.763L1115.35 160.963C1116.16 161.37 1117.06 161.582 1117.96 161.582C1118.87 161.582 1119.76 161.37 1120.57 160.963L1158.99 138.763C1159.3 138.65 1159.57 138.443 1159.76 138.172C1159.95 137.901 1160.05 137.578 1160.05 137.246C1160.05 136.915 1159.95 136.592 1159.76 136.321C1159.57 136.05 1159.3 135.843 1158.99 135.73L1120.57 113.53Z"
							fill="#42E8E0"
						/>
						<path
							d="M1091.59 181.78L1002.57 231.333L1002.56 263.421L1002.4 263.701L947.701 294.629L947.162 293.944L1001.72 262.935L1001.73 230.847L1002.34 230.449L1091.05 181.095L1091.59 181.78Z"
							fill="url(#paint17_linear_1_31)"
						/>
						<path
							opacity="0.5"
							d="M1036.02 322.296L1051.09 331.015V365.83L1036.02 357.126V322.296Z"
							fill="#758EF5"
						/>
						<path
							opacity="0.2"
							d="M1020.96 331.015L1036.02 339.719V357.126L1020.96 348.423V331.015Z"
							fill="#758EF5"
						/>
						<path
							opacity="0.5"
							d="M1005.9 270.059L1020.96 278.778V348.423L1005.9 339.719V270.059Z"
							fill="#758EF5"
						/>
						<path
							opacity="0.2"
							d="M990.819 243.948L1005.9 252.652V339.719L990.819 331.015V243.948Z"
							fill="#758EF5"
						/>
						<path
							opacity="0.5"
							d="M975.757 252.652L990.819 261.355V331.015L975.757 322.296V252.652Z"
							fill="#758EF5"
						/>
						<path
							opacity="0.2"
							d="M960.693 191.711L975.756 200.415V322.296L960.693 313.592V191.711Z"
							fill="#758EF5"
						/>
						<path
							opacity="0.5"
							d="M945.632 200.415L960.694 209.119V313.593L945.632 304.889V200.415Z"
							fill="#758EF5"
						/>
						<path
							opacity="0.2"
							d="M930.569 209.118L945.632 217.822V304.888L930.569 296.185V209.118Z"
							fill="#758EF5"
						/>
						<path
							opacity="0.5"
							d="M915.492 165.585L930.57 174.304V296.186L915.492 287.482V165.585Z"
							fill="#758EF5"
						/>
						<path
							opacity="0.2"
							d="M900.429 122.067L915.491 130.77V287.482L900.429 278.762V122.067Z"
							fill="#758EF5"
						/>
						<path
							opacity="0.5"
							d="M885.366 130.771L900.429 139.474V278.763L885.366 270.059V130.771Z"
							fill="#758EF5"
						/>
						<path
							opacity="0.2"
							d="M870.304 87.2368L885.366 95.9404V270.059L870.304 261.355V87.2368Z"
							fill="#758EF5"
						/>
						<path
							opacity="0.5"
							d="M855.225 78.5334L870.303 87.237V261.355L855.225 252.652V78.5334Z"
							fill="#758EF5"
						/>
						<path
							opacity="0.2"
							d="M840.163 35L855.226 43.7036V252.652L840.163 243.948V35Z"
							fill="#758EF5"
						/>
						<path
							opacity="0.4"
							d="M854.96 495C931.176 495 992.962 459.296 992.962 415.254C992.962 371.211 931.176 335.507 854.96 335.507C778.744 335.507 716.959 371.211 716.959 415.254C716.959 459.296 778.744 495 854.96 495Z"
							fill="#0F054C"
						/>
						<path
							d="M854.961 463.294C941.708 463.294 1012.03 422.657 1012.03 372.528C1012.03 322.399 941.708 281.762 854.961 281.762C768.213 281.762 697.891 322.399 697.891 372.528C697.891 422.657 768.213 463.294 854.961 463.294Z"
							fill="url(#paint18_linear_1_31)"
						/>
						<path
							opacity="0.48"
							d="M1012.05 342.641H1008.16C1001.86 326.477 987.823 311.106 966.036 298.533C904.699 263.081 805.239 263.081 743.979 298.533C723.404 310.422 709.817 324.783 702.969 339.968H698.046V360.095C696.82 384.201 712.131 408.54 743.979 426.926C805.317 462.362 904.776 462.362 966.114 426.926C996.782 409.192 1012.12 385.972 1012.12 362.737L1012.05 342.641Z"
							fill="url(#paint19_linear_1_31)"
						/>
						<path
							opacity="0.48"
							d="M1008.17 334.838C1007.95 334.279 1007.71 333.719 1007.47 333.16V319.933H999.236V318.985C997.086 316.098 994.752 313.351 992.249 310.764V319.933H987.59V306.21C985.406 304.22 983.066 302.272 980.571 300.366V319.965H975.913V296.884C973.661 295.33 971.254 293.776 968.863 292.315V319.887H964.204V289.58C961.906 288.285 959.551 287.041 957.139 285.85V319.887H952.48V283.689C950.151 282.653 947.791 281.617 945.399 280.581V319.887H940.741V288.103H933.644V319.933H928.986V296.884H921.858V319.98H917.2V305.619H910.057V319.98H905.491V314.369H898.395V319.98H811.653V314.369H804.479V319.98H799.913V305.619H792.801V319.98H788.143V296.884H781.015V319.98H776.357V288.103H769.26V319.933H764.602V280.596C762.21 281.57 759.85 282.606 757.521 283.705V319.98H752.862V285.865C750.455 287.062 748.095 288.29 745.797 289.58V319.933H741.138V292.315C738.685 293.786 736.335 295.304 734.088 296.869V319.933H729.43V300.288C726.93 302.184 724.6 304.143 722.411 306.132V319.933H717.752V310.608C715.258 313.199 712.925 315.939 710.764 318.814V319.856H702.534V332.056H699.041V365.798C700.403 372.098 702.756 378.142 706.013 383.703V362.674H710.764V390.914C712.916 393.791 715.25 396.527 717.752 399.105V362.674H722.411V403.674C724.6 405.648 726.945 407.607 729.43 409.503V362.674H734.088V412.922C736.345 414.476 738.695 415.999 741.138 417.491V362.674H745.797V420.18C748.095 421.455 750.45 422.693 752.862 423.895V362.674H757.521V426.133C759.85 427.169 762.21 428.205 764.602 429.241V362.721H769.26V431.106C771.589 431.992 773.919 432.831 776.357 433.64V362.674H781.015V435.007C783.376 435.738 785.674 436.422 788.143 437.074V362.674H792.801V438.318C795.162 438.893 797.537 439.452 799.944 439.965V362.721H804.51V440.913C806.886 441.38 809.277 441.799 811.684 442.203V362.674H816.234V442.856C818.61 443.214 821.016 443.524 823.423 443.82V362.674H827.942V444.317C830.334 444.55 832.74 444.752 835.163 444.939V362.674H839.651V445.234C842.073 445.358 844.48 445.467 846.902 445.545V362.674H851.375V445.638C853.818 445.638 856.256 445.638 858.688 445.638V362.674H863.161V445.545C865.583 445.545 867.99 445.358 870.412 445.234V362.674H874.9V444.939C877.323 444.752 879.729 444.55 882.121 444.301V362.674H886.64V443.804C889.047 443.524 891.453 443.198 893.829 442.856V362.674H898.395V442.141C900.802 441.753 903.193 441.317 905.569 440.851V362.674H910.134V439.872C912.541 439.344 914.917 438.8 917.277 438.209V362.674H921.936V437.059C924.327 436.406 926.703 435.707 929.063 434.992V362.674H933.722V433.5C936.113 432.707 938.489 431.945 940.818 430.982V362.674H945.477V429.163C947.868 428.184 950.229 427.174 952.558 426.055V362.674H957.216V423.895C959.629 422.693 961.984 421.455 964.282 420.18V362.674H968.94V417.46C971.394 415.968 973.744 414.44 975.99 412.875V362.674H980.649V409.456C983.133 407.539 985.473 405.591 987.668 403.612V362.674H992.326V399.058C994.833 396.474 997.167 393.728 999.314 390.837V362.674H1003.99V383.641C1007.27 378.031 1009.63 371.927 1010.96 365.565V334.854L1008.17 334.838Z"
							fill="url(#paint20_linear_1_31)"
						/>
						<path
							d="M854.961 425.636C941.708 425.636 1012.03 384.998 1012.03 334.87C1012.03 284.741 941.708 244.104 854.961 244.104C768.213 244.104 697.891 284.741 697.891 334.87C697.891 384.998 768.213 425.636 854.961 425.636Z"
							fill="url(#paint21_linear_1_31)"
						/>
						<path
							opacity="0.3"
							d="M855.023 244.041C819.432 244.041 783.841 250.989 754.865 264.868L708 366.824C715.64 378.558 727.581 389.547 743.902 398.981C754.434 404.983 765.554 409.889 777.086 413.621L855.023 244.041Z"
							fill="#91A2FA"
						/>
						<path
							opacity="0.3"
							d="M899.03 247.74L818.406 423.149C837.889 425.797 857.602 426.318 877.197 424.703L951.407 263.236C934.679 255.858 917.078 250.65 899.03 247.74Z"
							fill="#91A2FA"
						/>
						<g opacity="0.05">
							<path
								opacity="0.05"
								d="M854.961 415.254C931.786 415.254 994.065 379.265 994.065 334.87C994.065 290.475 931.786 254.486 854.961 254.486C778.136 254.486 715.857 290.475 715.857 334.87C715.857 379.265 778.136 415.254 854.961 415.254Z"
								fill="url(#paint22_linear_1_31)"
							/>
							<g opacity="0.05">
								<path
									opacity="0.05"
									d="M606.491 334.528L605 333.658L847.337 193.623L848.828 194.493L606.491 334.528Z"
									fill="#91A2FA"
								/>
								<path
									opacity="0.05"
									d="M610.761 336.983L609.27 336.128L851.607 196.094L853.098 196.949L610.761 336.983Z"
									fill="#91A2FA"
								/>
								<path
									opacity="0.05"
									d="M615.032 339.455L613.541 338.6L855.878 198.566L857.369 199.42L615.032 339.455Z"
									fill="#91A2FA"
								/>
								<path
									opacity="0.05"
									d="M619.302 341.926L617.811 341.071L860.148 201.037L861.639 201.891L619.302 341.926Z"
									fill="#91A2FA"
								/>
								<path
									opacity="0.05"
									d="M623.572 344.397L622.082 343.527L864.418 203.492L865.909 204.363L623.572 344.397Z"
									fill="#91A2FA"
								/>
								<path
									opacity="0.05"
									d="M627.842 346.853L626.352 345.998L868.688 205.963L870.179 206.818L627.842 346.853Z"
									fill="#91A2FA"
								/>
								<path
									opacity="0.05"
									d="M632.113 349.324L630.622 348.469L872.959 208.434L874.434 209.289L632.113 349.324Z"
									fill="#91A2FA"
								/>
								<path
									opacity="0.05"
									d="M636.383 351.795L634.893 350.94L877.229 210.906L878.705 211.761L636.383 351.795Z"
									fill="#91A2FA"
								/>
								<path
									opacity="0.05"
									d="M640.653 354.267L639.163 353.396L881.499 213.362L882.975 214.217L640.653 354.267Z"
									fill="#91A2FA"
								/>
								<path
									opacity="0.05"
									d="M644.924 356.722L643.433 355.867L885.77 215.833L887.245 216.688L644.924 356.722Z"
									fill="#91A2FA"
								/>
								<path
									opacity="0.05"
									d="M649.178 359.193L647.703 358.338L890.04 218.304L891.515 219.159L649.178 359.193Z"
									fill="#91A2FA"
								/>
								<path
									opacity="0.05"
									d="M653.449 361.664L651.974 360.81L894.311 220.775L895.786 221.63L653.449 361.664Z"
									fill="#91A2FA"
								/>
								<path
									opacity="0.05"
									d="M657.719 364.12L656.244 363.265L898.581 223.23L900.056 224.085L657.719 364.12Z"
									fill="#91A2FA"
								/>
								<path
									opacity="0.05"
									d="M661.99 366.591L660.515 365.736L902.852 225.702L904.327 226.557L661.99 366.591Z"
									fill="#91A2FA"
								/>
								<path
									opacity="0.05"
									d="M666.26 369.062L664.785 368.207L907.122 228.173L908.597 229.028L666.26 369.062Z"
									fill="#91A2FA"
								/>
								<path
									opacity="0.05"
									d="M670.531 371.533L669.04 370.679L911.377 230.629L912.868 231.499L670.531 371.533Z"
									fill="#91A2FA"
								/>
								<path
									opacity="0.05"
									d="M674.801 374.005L673.31 373.135L915.647 233.1L917.138 233.955L674.801 374.005Z"
									fill="#91A2FA"
								/>
								<path
									opacity="0.05"
									d="M679.071 376.461L677.581 375.606L919.917 235.572L921.408 236.426L679.071 376.461Z"
									fill="#91A2FA"
								/>
								<path
									opacity="0.05"
									d="M683.341 378.932L681.851 378.077L924.187 238.042L925.678 238.897L683.341 378.932Z"
									fill="#91A2FA"
								/>
								<path
									opacity="0.05"
									d="M687.612 381.403L686.121 380.533L928.458 240.498L929.949 241.368L687.612 381.403Z"
									fill="#91A2FA"
								/>
								<path
									opacity="0.05"
									d="M691.882 383.858L690.392 383.003L932.728 242.969L934.219 243.824L691.882 383.858Z"
									fill="#91A2FA"
								/>
								<path
									opacity="0.05"
									d="M696.152 386.33L694.662 385.475L936.998 245.44L938.489 246.295L696.152 386.33Z"
									fill="#91A2FA"
								/>
								<path
									opacity="0.05"
									d="M700.423 388.801L698.932 387.946L941.269 247.912L942.76 248.767L700.423 388.801Z"
									fill="#91A2FA"
								/>
								<path
									opacity="0.05"
									d="M704.693 391.272L703.202 390.417L945.539 250.367L947.03 251.238L704.693 391.272Z"
									fill="#91A2FA"
								/>
								<path
									opacity="0.05"
									d="M708.963 393.727L707.473 392.873L949.81 252.838L951.3 253.693L708.963 393.727Z"
									fill="#91A2FA"
								/>
								<path
									opacity="0.05"
									d="M713.234 396.198L711.743 395.344L954.08 255.309L955.555 256.164L713.234 396.198Z"
									fill="#91A2FA"
								/>
								<path
									opacity="0.05"
									d="M717.504 398.67L716.014 397.815L958.351 257.781L959.826 258.635L717.504 398.67Z"
									fill="#91A2FA"
								/>
								<path
									opacity="0.05"
									d="M721.759 401.141L720.284 400.271L962.621 260.236L964.096 261.107L721.759 401.141Z"
									fill="#91A2FA"
								/>
								<path
									opacity="0.05"
									d="M726.029 403.597L724.554 402.742L966.891 262.708L968.366 263.562L726.029 403.597Z"
									fill="#91A2FA"
								/>
								<path
									opacity="0.05"
									d="M730.299 406.068L728.824 405.213L971.161 265.178L972.636 266.033L730.299 406.068Z"
									fill="#91A2FA"
								/>
								<path
									opacity="0.05"
									d="M734.57 408.539L733.095 407.684L975.432 267.649L976.907 268.504L734.57 408.539Z"
									fill="#91A2FA"
								/>
								<path
									opacity="0.05"
									d="M738.84 411.01L737.365 410.14L979.702 270.106L981.177 270.961L738.84 411.01Z"
									fill="#91A2FA"
								/>
								<path
									opacity="0.05"
									d="M743.11 413.466L741.635 412.611L983.957 272.577L985.447 273.431L743.11 413.466Z"
									fill="#91A2FA"
								/>
								<path
									opacity="0.05"
									d="M747.38 415.937L745.905 415.083L988.242 275.048L989.717 275.903L747.38 415.937Z"
									fill="#91A2FA"
								/>
								<path
									opacity="0.05"
									d="M751.651 418.409L750.176 417.554L992.497 277.504L993.988 278.374L751.651 418.409Z"
									fill="#91A2FA"
								/>
								<path
									opacity="0.05"
									d="M755.921 420.88L754.446 420.009L996.768 279.975L998.258 280.845L755.921 420.88Z"
									fill="#91A2FA"
								/>
								<path
									opacity="0.05"
									d="M760.192 423.335L758.701 422.48L1001.04 282.446L1002.53 283.301L760.192 423.335Z"
									fill="#91A2FA"
								/>
								<path
									opacity="0.05"
									d="M764.462 425.807L762.972 424.952L1005.31 284.918L1006.8 285.773L764.462 425.807Z"
									fill="#91A2FA"
								/>
								<path
									opacity="0.05"
									d="M768.733 428.278L767.242 427.423L1009.58 287.373L1011.07 288.243L768.733 428.278Z"
									fill="#91A2FA"
								/>
								<path
									opacity="0.05"
									d="M773.002 430.749L771.512 429.879L1013.85 289.844L1015.34 290.715L773.002 430.749Z"
									fill="#91A2FA"
								/>
								<path
									opacity="0.05"
									d="M777.273 433.204L775.782 432.35L1018.12 292.315L1019.61 293.17L777.273 433.204Z"
									fill="#91A2FA"
								/>
								<path
									opacity="0.05"
									d="M781.544 435.675L780.054 434.821L1022.39 294.786L1023.88 295.641L781.544 435.675Z"
									fill="#91A2FA"
								/>
								<path
									opacity="0.05"
									d="M785.814 438.147L784.323 437.293L1026.66 297.258L1028.15 298.113L785.814 438.147Z"
									fill="#91A2FA"
								/>
								<path
									opacity="0.05"
									d="M790.084 440.619L788.594 439.748L1030.93 299.714L1032.42 300.569L790.084 440.619Z"
									fill="#91A2FA"
								/>
								<path
									opacity="0.05"
									d="M794.355 443.074L792.864 442.219L1035.2 302.185L1036.69 303.04L794.355 443.074Z"
									fill="#91A2FA"
								/>
								<path
									opacity="0.05"
									d="M798.626 445.545L797.135 444.69L1039.47 304.656L1040.96 305.511L798.626 445.545Z"
									fill="#91A2FA"
								/>
								<path
									opacity="0.05"
									d="M802.895 448.016L801.404 447.161L1043.74 307.111L1045.23 307.982L802.895 448.016Z"
									fill="#91A2FA"
								/>
								<path
									opacity="0.05"
									d="M807.166 450.472L805.675 449.617L1048.01 309.582L1049.49 310.437L807.166 450.472Z"
									fill="#91A2FA"
								/>
								<path
									opacity="0.05"
									d="M811.436 452.943L809.945 452.089L1052.28 312.054L1053.76 312.909L811.436 452.943Z"
									fill="#91A2FA"
								/>
								<path
									opacity="0.05"
									d="M815.69 455.414L814.215 454.56L1056.55 314.525L1058.03 315.38L815.69 455.414Z"
									fill="#91A2FA"
								/>
								<path
									opacity="0.05"
									d="M819.961 457.886L818.485 457.031L1060.82 316.981L1062.3 317.851L819.961 457.886Z"
									fill="#91A2FA"
								/>
								<path
									opacity="0.05"
									d="M824.232 460.341L822.757 459.486L1065.09 319.452L1066.57 320.307L824.232 460.341Z"
									fill="#91A2FA"
								/>
								<path
									opacity="0.05"
									d="M828.503 462.812L827.027 461.957L1069.36 321.923L1070.84 322.778L828.503 462.812Z"
									fill="#91A2FA"
								/>
								<path
									opacity="0.05"
									d="M832.772 465.284L831.297 464.429L1073.63 324.395L1075.11 325.25L832.772 465.284Z"
									fill="#91A2FA"
								/>
								<path
									opacity="0.05"
									d="M837.042 467.755L835.551 466.885L1077.89 326.851L1079.38 327.721L837.042 467.755Z"
									fill="#91A2FA"
								/>
								<path
									opacity="0.05"
									d="M841.312 470.211L839.821 469.356L1082.16 329.321L1083.65 330.176L841.312 470.211Z"
									fill="#91A2FA"
								/>
								<path
									opacity="0.05"
									d="M845.583 472.681L844.092 471.827L1086.43 331.792L1087.92 332.647L845.583 472.681Z"
									fill="#91A2FA"
								/>
								<path
									opacity="0.05"
									d="M849.852 475.153L848.361 474.298L1090.7 334.264L1092.19 335.118L849.852 475.153Z"
									fill="#91A2FA"
								/>
								<path
									opacity="0.05"
									d="M854.123 477.623L852.632 476.753L1094.97 336.719L1096.46 337.589L854.123 477.623Z"
									fill="#91A2FA"
								/>
								<path
									opacity="0.05"
									d="M858.393 480.08L856.902 479.225L1099.24 339.191L1100.73 340.046L858.393 480.08Z"
									fill="#91A2FA"
								/>
								<path
									opacity="0.05"
									d="M862.663 482.551L861.172 481.696L1103.51 341.662L1105 342.517L862.663 482.551Z"
									fill="#91A2FA"
								/>
							</g>
						</g>
						<path
							d="M756.605 283.441C810.954 252.062 899 252.062 953.334 283.441C979.298 298.455 992.839 317.913 993.988 337.574C995.23 316.111 981.689 294.414 953.334 278.032C898.985 246.637 810.923 246.637 756.605 278.032C728.25 294.414 714.678 316.111 715.951 337.574C717.1 317.913 730.688 298.439 756.605 283.441Z"
							fill="url(#paint23_linear_1_31)"
						/>
						<path
							d="M897.96 317.851C889.677 317.116 881.343 318.512 873.751 321.907C883.068 314.136 880.92 306.194 867.307 298.081L866.297 297.491C861.882 294.858 857.142 292.815 852.198 291.414C847.518 290.049 842.676 289.322 837.803 289.253C833.15 289.283 828.518 289.889 824.013 291.056C821.498 291.699 819.096 292.414 816.808 293.201L808.05 288.134L795.162 295.579L802.367 299.76C801.093 300.444 799.805 301.159 798.485 301.92L793.826 304.656L786.683 300.521L773.794 307.966L780.938 312.1L772.04 317.245L768.561 319.265L767.614 319.794L752.831 328.342L765.72 335.802L780.503 327.254L873.394 380.967L858.595 389.516L871.484 396.96L886.282 388.412L890.708 385.863L899.606 380.719L906.873 384.915L919.762 377.47L915.103 374.813L912.448 373.258L921.004 368.316L928.271 372.512L941.16 365.068L936.501 362.41L932.806 360.265C937.883 355.836 940.57 351.36 940.912 346.852C941.284 340.117 935.694 333.383 924.141 326.648L923.364 326.181C915.589 321.617 906.926 318.776 897.96 317.851ZM811.435 314.836L815.581 312.427C825.851 306.5 835.686 306.241 845.086 311.65C850.583 314.758 853.564 317.726 854.076 320.353C854.589 322.98 852.011 325.933 846.312 329.197L841.297 332.087L811.435 314.836ZM894.233 362.674L858.564 342.112L863.72 339.128C868.621 336.02 874.316 334.401 880.118 334.465C885.232 334.714 891.133 336.786 897.82 340.682C903.783 344.133 907.003 347.319 907.479 350.241C907.96 353.162 905.351 356.271 899.715 359.566L894.233 362.674Z"
							fill="url(#paint24_linear_1_31)"
						/>
						<path
							d="M773.717 297.506V305.775L780.86 301.641L773.717 297.506Z"
							fill="url(#paint25_linear_1_31)"
						/>
						<path
							d="M795.161 285.119V293.388L802.366 289.3L795.161 285.119Z"
							fill="url(#paint26_linear_1_31)"
						/>
						<path
							d="M879.45 301.656V311.478L872.99 307.515L879.45 301.656Z"
							fill="url(#paint27_linear_1_31)"
						/>
						<path
							d="M940.99 334.87V346.868L931.3 340.869L940.99 334.87Z"
							fill="url(#paint28_linear_1_31)"
						/>
						<path
							d="M897.96 307.391C889.677 306.657 881.343 308.053 873.751 311.448C883.068 303.677 880.92 295.73 867.307 287.606L866.297 287.031C861.882 284.399 857.142 282.356 852.198 280.954C847.52 279.582 842.677 278.855 837.803 278.794C833.15 278.824 828.518 279.429 824.013 280.597C821.498 281.229 819.096 281.944 816.808 282.742L808.05 277.675L795.162 285.119L802.367 289.3C801.093 289.984 799.805 290.699 798.485 291.461L793.826 294.196L786.683 290.062L773.794 297.507L780.938 301.641L772.04 306.785L768.561 308.79L767.614 309.334L752.831 317.882L765.72 325.342L780.503 316.794L873.472 370.508L858.673 379.056L871.562 386.501L886.36 377.953L890.786 375.404L899.684 370.259L906.951 374.456L919.839 367.011L915.181 364.353L912.526 362.799L921.082 357.857L928.349 362.053L941.238 354.608L936.579 351.951L932.883 349.806C937.961 345.376 940.648 340.9 940.989 336.393C941.362 329.658 935.772 322.923 924.218 316.188L923.442 315.737C915.648 311.15 906.956 308.303 897.96 307.391ZM811.435 304.376L815.581 301.967C825.851 296.04 835.686 295.781 845.086 301.19C850.583 304.298 853.564 307.267 854.077 309.894C854.589 312.52 852.011 315.473 846.312 318.737L841.297 321.628L811.435 304.376ZM894.233 352.215L858.626 331.653L863.782 328.668C868.683 325.561 874.378 323.941 880.18 324.006C885.294 324.255 891.195 326.327 897.882 330.223C903.845 333.673 907.065 336.859 907.541 339.781C908.022 342.703 905.414 345.811 899.777 349.106L894.233 352.215Z"
							fill="url(#paint29_linear_1_31)"
						/>
						<path
							d="M941.206 354.624V365.083L928.317 372.528V362.068L941.206 354.624Z"
							fill="url(#paint30_linear_1_31)"
						/>
						<path
							d="M919.762 367.011V377.471L906.873 384.915V374.455L919.762 367.011Z"
							fill="url(#paint31_linear_1_31)"
						/>
						<path
							d="M871.498 386.501V396.961L858.594 389.516V379.056L871.498 386.501Z"
							fill="url(#paint32_linear_1_31)"
						/>
						<path
							d="M752.754 317.882V328.357L765.643 335.802V325.342L752.754 317.882Z"
							fill="url(#paint33_linear_1_31)"
						/>
						<path
							d="M780.425 327.254V316.794L765.642 325.342V335.802L780.425 327.254Z"
							fill="url(#paint34_linear_1_31)"
						/>
						<path
							d="M780.424 316.794V327.254L864.34 375.745L873.393 370.508L780.424 316.794Z"
							fill="url(#paint35_linear_1_31)"
						/>
						<path
							d="M856.887 259.226C851.404 259.34 845.983 258.045 841.141 255.465C836.762 252.947 834.355 249.528 834.355 245.86C834.355 242.192 836.762 238.788 841.141 236.255C849.822 231.25 863.953 231.25 872.649 236.255C877.012 238.788 879.419 242.208 879.419 245.86C879.419 249.512 877.012 252.947 872.649 255.465C867.802 258.045 862.376 259.34 856.887 259.226ZM856.887 234.203C851.702 234.108 846.578 235.333 841.995 237.762C838.191 239.969 836.095 242.845 836.095 245.86C836.095 248.875 838.191 251.766 842.011 253.973C850.21 258.713 863.564 258.713 871.779 253.973C875.583 251.766 877.695 248.891 877.695 245.86C877.695 242.829 875.583 239.969 871.779 237.762C867.197 235.331 862.072 234.106 856.887 234.203Z"
							fill="#91A2FA"
						/>
						<path
							d="M866.22 251.253C863.334 252.722 860.142 253.487 856.903 253.487C853.665 253.487 850.473 252.722 847.586 251.253C842.431 248.284 842.431 243.482 847.586 240.482C850.473 239.014 853.665 238.248 856.903 238.248C860.142 238.248 863.334 239.014 866.22 240.482C871.36 243.451 871.36 248.284 866.22 251.253Z"
							fill="#97A6FC"
						/>
						<path
							d="M911.282 219.764L902.043 214.433L917.773 205.341L927.028 210.672L911.282 219.764Z"
							fill="#91A2FA"
						/>
						<path
							opacity="0.8"
							d="M894.667 211.341L883.021 207.906L893.13 196.452L904.776 199.886L894.667 211.341Z"
							fill="#91A2FA"
						/>
						<path
							opacity="0.6"
							d="M874.357 206.274L861.453 205.093L864.931 192.395L877.836 193.576L874.357 206.274Z"
							fill="#91A2FA"
						/>
						<path
							opacity="0.4"
							d="M852.337 205.093L839.417 206.274L835.938 193.576L848.843 192.395L852.337 205.093Z"
							fill="#91A2FA"
						/>
						<path
							opacity="0.2"
							d="M830.753 207.906L819.106 211.341L809.013 199.871L820.643 196.452L830.753 207.906Z"
							fill="#91A2FA"
						/>
						<path
							opacity="0.1"
							d="M811.73 214.433L802.49 219.764L786.76 210.672L795.999 205.341L811.73 214.433Z"
							fill="#91A2FA"
						/>
						<path
							opacity="0.2"
							d="M880.444 234.141L877.198 232.26L900.677 218.692L903.923 220.572L880.444 234.141Z"
							fill="#91A2FA"
						/>
						<path
							opacity="0.4"
							d="M873.006 230.504L868.922 229.292L884 212.195L888.084 213.408L873.006 230.504Z"
							fill="#91A2FA"
						/>
						<path
							opacity="0.6"
							d="M864.015 228.375L859.48 227.955L864.667 209.01L869.201 209.429L864.015 228.375Z"
							fill="#91A2FA"
						/>
						<path
							opacity="0.8"
							d="M854.31 227.955L849.775 228.375L844.573 209.429L849.108 209.01L854.31 227.955Z"
							fill="#91A2FA"
						/>
						<path
							d="M844.853 229.292L840.769 230.504L825.69 213.408L829.79 212.195L844.853 229.292Z"
							fill="#91A2FA"
						/>
						<path
							d="M836.591 232.26L833.345 234.141L809.866 220.572L813.112 218.692L836.591 232.26Z"
							fill="#91A2FA"
						/>
						<path
							d="M830.302 236.55L828.221 238.912L798.64 230.193L800.72 227.831L830.302 236.55Z"
							fill="#91A2FA"
						/>
						<path
							d="M826.621 241.756L825.906 244.367L793.11 241.368L793.825 238.741L826.621 241.756Z"
							fill="#91A2FA"
						/>
						<path
							d="M825.906 247.352L826.621 249.978L793.825 252.978L793.11 250.351L825.906 247.352Z"
							fill="#91A2FA"
						/>
						<path
							d="M828.221 252.823L830.302 255.185L800.72 263.889L798.64 261.526L828.221 252.823Z"
							fill="#91A2FA"
						/>
						<path
							d="M833.345 257.594L836.591 259.475L813.112 273.043L809.866 271.162L833.345 257.594Z"
							fill="#91A2FA"
						/>
						<path
							opacity="0.6"
							d="M949.11 201.813C983.63 225.872 985.556 260.267 954.934 285.507L967.356 296.962C1009.61 266.531 1008.68 222.717 964.608 192.83L949.11 201.813Z"
							fill="#97A6FC"
						/>
						<path
							opacity="0.2"
							d="M875.568 314.168C839.061 317.478 800.395 311.059 772.273 294.771C766.132 291.279 760.403 287.109 755.192 282.338L734.12 286.534C740.899 293.206 748.527 298.954 756.807 303.63C792.382 324.177 842.213 331.482 887.898 325.56L875.568 314.168Z"
							fill="#91A2FA"
						/>
						<path
							d="M716.852 257.47L737.924 253.274C734.197 233.193 745.688 212.351 772.273 196.964C816.311 171.522 886.112 170.061 933.132 192.566L948.583 183.645C893.006 156.229 809.401 157.689 756.853 188.059C724.103 206.974 710.78 232.867 716.852 257.47Z"
							fill="#97A6FC"
						/>
						<path
							d="M843.983 291.585L835.737 286.829L941.61 225.64L949.856 230.396L843.983 291.585Z"
							fill="#97A6FC"
						/>
						<path
							opacity="0.8"
							d="M855.691 298.361L847.445 293.59L893.472 266.997L901.717 271.768L855.691 298.361Z"
							fill="#97A6FC"
						/>
						<path
							opacity="0.6"
							d="M868.223 305.604L859.978 300.832L933.241 258.511L941.486 263.267L868.223 305.604Z"
							fill="#97A6FC"
						/>
						<path
							opacity="0.2"
							d="M880.568 312.722L872.307 307.966L929.343 275.017L937.588 279.773L880.568 312.722Z"
							fill="#97A6FC"
						/>
						<path
							d="M40 874.863L1.64957e-06 781L867.982 279.871L907.982 373.734L40 874.863Z"
							fill="url(#paint36_linear_1_31)"
						/>
						<defs>
							<filter
								id="filter0_dd_1_31"
								x="555"
								y="226"
								width="932.19"
								height="610.864"
								filterUnits="userSpaceOnUse"
								color-interpolation-filters="sRGB"
							>
								<feFlood flood-opacity="0" result="BackgroundImageFix" />
								<feColorMatrix
									in="SourceAlpha"
									type="matrix"
									values="0 0 0 0 0 0 0 0 0 0 0 0 0 0 0 0 0 0 127 0"
									result="hardAlpha"
								/>
								<feOffset dy="4" />
								<feGaussianBlur stdDeviation="2" />
								<feComposite in2="hardAlpha" operator="out" />
								<feColorMatrix
									type="matrix"
									values="0 0 0 0 0 0 0 0 0 0 0 0 0 0 0 0 0 0 0.25 0"
								/>
								<feBlend
									mode="normal"
									in2="BackgroundImageFix"
									result="effect1_dropShadow_1_31"
								/>
								<feColorMatrix
									in="SourceAlpha"
									type="matrix"
									values="0 0 0 0 0 0 0 0 0 0 0 0 0 0 0 0 0 0 127 0"
									result="hardAlpha"
								/>
								<feOffset dy="4" />
								<feGaussianBlur stdDeviation="2" />
								<feComposite in2="hardAlpha" operator="out" />
								<feColorMatrix
									type="matrix"
									values="0 0 0 0 0 0 0 0 0 0 0 0 0 0 0 0 0 0 0.25 0"
								/>
								<feBlend
									mode="normal"
									in2="effect1_dropShadow_1_31"
									result="effect2_dropShadow_1_31"
								/>
								<feBlend
									mode="normal"
									in="SourceGraphic"
									in2="effect2_dropShadow_1_31"
									result="shape"
								/>
							</filter>
							<linearGradient
								id="paint0_linear_1_31"
								x1="679"
								y1="1175.62"
								x2="679"
								y2="1826.74"
								gradientUnits="userSpaceOnUse"
							>
								<stop stop-color="white" stop-opacity="0.04" />
								<stop offset="1" stop-color="white" stop-opacity="0.01" />
							</linearGradient>
							<linearGradient
								id="paint1_linear_1_31"
								x1="1078.95"
								y1="530.116"
								x2="1158.27"
								y2="575.884"
								gradientUnits="userSpaceOnUse"
							>
								<stop stop-color="#BCBEFF" />
								<stop offset="0.23" stop-color="#AAADF8" />
								<stop offset="0.68" stop-color="#7C83E5" />
								<stop offset="1" stop-color="#5761D7" />
							</linearGradient>
							<linearGradient
								id="paint2_linear_1_31"
								x1="1069"
								y1="547.437"
								x2="1168.94"
								y2="547.437"
								gradientUnits="userSpaceOnUse"
							>
								<stop stop-color="#E9E9FD" />
								<stop offset="0.36" stop-color="#D3D2F9" />
								<stop offset="0.71" stop-color="#C5C4F7" />
								<stop offset="1" stop-color="#C0BFF6" />
							</linearGradient>
							<linearGradient
								id="paint3_linear_1_31"
								x1="52925"
								y1="9528.62"
								x2="54676.4"
								y2="12071"
								gradientUnits="userSpaceOnUse"
							>
								<stop stop-color="#BCBEFF" />
								<stop offset="0.23" stop-color="#AAADF8" />
								<stop offset="0.68" stop-color="#7C83E5" />
								<stop offset="1" stop-color="#5761D7" />
							</linearGradient>
							<linearGradient
								id="paint4_linear_1_31"
								x1="52382"
								y1="14075.8"
								x2="57521.7"
								y2="14075.8"
								gradientUnits="userSpaceOnUse"
							>
								<stop stop-color="#E9E9FD" />
								<stop offset="0.36" stop-color="#D3D2F9" />
								<stop offset="0.71" stop-color="#C5C4F7" />
								<stop offset="1" stop-color="#C0BFF6" />
							</linearGradient>
							<linearGradient
								id="paint5_linear_1_31"
								x1="929.959"
								y1="453.479"
								x2="1100.05"
								y2="453.479"
								gradientUnits="userSpaceOnUse"
							>
								<stop stop-color="#5778FF" />
								<stop offset="0.1042" stop-color="#567FFF" />
								<stop offset="0.2607" stop-color="#5394FF" />
								<stop offset="0.4503" stop-color="#4DB6FF" />
								<stop offset="0.6638" stop-color="#46E4FF" />
								<stop offset="0.7742" stop-color="#42FFFF" />
							</linearGradient>
							<linearGradient
								id="paint6_linear_1_31"
								x1="43614.8"
								y1="11841.4"
								x2="45366.1"
								y2="14383.9"
								gradientUnits="userSpaceOnUse"
							>
								<stop stop-color="#BCBEFF" />
								<stop offset="0.23" stop-color="#AAADF8" />
								<stop offset="0.68" stop-color="#7C83E5" />
								<stop offset="1" stop-color="#5761D7" />
							</linearGradient>
							<linearGradient
								id="paint7_linear_1_31"
								x1="43096.6"
								y1="17439.7"
								x2="48239.8"
								y2="17439.7"
								gradientUnits="userSpaceOnUse"
							>
								<stop stop-color="#E9E9FD" />
								<stop offset="0.36" stop-color="#D3D2F9" />
								<stop offset="0.71" stop-color="#C5C4F7" />
								<stop offset="1" stop-color="#C0BFF6" />
							</linearGradient>
							<linearGradient
								id="paint8_linear_1_31"
								x1="43614.8"
								y1="10492.5"
								x2="45365.6"
								y2="13034.3"
								gradientUnits="userSpaceOnUse"
							>
								<stop stop-color="#BCBEFF" />
								<stop offset="0.23" stop-color="#AAADF8" />
								<stop offset="0.68" stop-color="#7C83E5" />
								<stop offset="1" stop-color="#5761D7" />
							</linearGradient>
							<linearGradient
								id="paint9_linear_1_31"
								x1="43096.6"
								y1="15503.9"
								x2="48239.8"
								y2="15503.9"
								gradientUnits="userSpaceOnUse"
							>
								<stop stop-color="#E9E9FD" />
								<stop offset="0.36" stop-color="#D3D2F9" />
								<stop offset="0.71" stop-color="#C5C4F7" />
								<stop offset="1" stop-color="#C0BFF6" />
							</linearGradient>
							<linearGradient
								id="paint10_linear_1_31"
								x1="789.231"
								y1="469.7"
								x2="619.141"
								y2="470.704"
								gradientUnits="userSpaceOnUse"
							>
								<stop stop-color="#5778FF" />
								<stop offset="0.1042" stop-color="#567FFF" />
								<stop offset="0.2607" stop-color="#5394FF" />
								<stop offset="0.4503" stop-color="#4DB6FF" />
								<stop offset="0.6638" stop-color="#46E4FF" />
								<stop offset="0.7742" stop-color="#42FFFF" />
							</linearGradient>
							<linearGradient
								id="paint11_linear_1_31"
								x1="27175.7"
								y1="5161.86"
								x2="28927.1"
								y2="7702.14"
								gradientUnits="userSpaceOnUse"
							>
								<stop stop-color="#BCBEFF" />
								<stop offset="0.23" stop-color="#AAADF8" />
								<stop offset="0.68" stop-color="#7C83E5" />
								<stop offset="1" stop-color="#5761D7" />
							</linearGradient>
							<linearGradient
								id="paint12_linear_1_31"
								x1="26639.4"
								y1="7900.77"
								x2="31773.5"
								y2="7900.77"
								gradientUnits="userSpaceOnUse"
							>
								<stop stop-color="#E9E9FD" />
								<stop offset="0.36" stop-color="#D3D2F9" />
								<stop offset="0.71" stop-color="#C5C4F7" />
								<stop offset="1" stop-color="#C0BFF6" />
							</linearGradient>
							<linearGradient
								id="paint13_linear_1_31"
								x1="27175.7"
								y1="3948.11"
								x2="28932.1"
								y2="6490.26"
								gradientUnits="userSpaceOnUse"
							>
								<stop stop-color="#BCBEFF" />
								<stop offset="0.23" stop-color="#AAADF8" />
								<stop offset="0.68" stop-color="#7C83E5" />
								<stop offset="1" stop-color="#5761D7" />
							</linearGradient>
							<linearGradient
								id="paint14_linear_1_31"
								x1="1082.7"
								y1="116.854"
								x2="1153.41"
								y2="157.638"
								gradientUnits="userSpaceOnUse"
							>
								<stop offset="0.24" stop-color="#5761D7" />
								<stop offset="0.39" stop-color="#7A82E5" />
								<stop offset="0.55" stop-color="#979CF0" />
								<stop offset="0.7" stop-color="#ACAFF8" />
								<stop offset="0.85" stop-color="#B8BAFD" />
								<stop offset="1" stop-color="#BCBEFF" />
							</linearGradient>
							<linearGradient
								id="paint15_linear_1_31"
								x1="26664.3"
								y1="6150.71"
								x2="31803.3"
								y2="6150.71"
								gradientUnits="userSpaceOnUse"
							>
								<stop stop-color="#E9E9FD" />
								<stop offset="0.36" stop-color="#D3D2F9" />
								<stop offset="0.71" stop-color="#C5C4F7" />
								<stop offset="1" stop-color="#C0BFF6" />
							</linearGradient>
							<linearGradient
								id="paint16_linear_1_31"
								x1="25946.1"
								y1="5963.93"
								x2="30772.3"
								y2="5963.93"
								gradientUnits="userSpaceOnUse"
							>
								<stop stop-color="#E9E9FD" />
								<stop offset="0.36" stop-color="#D3D2F9" />
								<stop offset="0.71" stop-color="#C5C4F7" />
								<stop offset="1" stop-color="#C0BFF6" />
							</linearGradient>
							<linearGradient
								id="paint17_linear_1_31"
								x1="976.839"
								y1="311.499"
								x2="1061.89"
								y2="164.194"
								gradientUnits="userSpaceOnUse"
							>
								<stop stop-color="#5778FF" />
								<stop offset="0.1042" stop-color="#567FFF" />
								<stop offset="0.2607" stop-color="#5394FF" />
								<stop offset="0.4503" stop-color="#4DB6FF" />
								<stop offset="0.6638" stop-color="#46E4FF" />
								<stop offset="0.7742" stop-color="#42FFFF" />
							</linearGradient>
							<linearGradient
								id="paint18_linear_1_31"
								x1="100478"
								y1="-16197.8"
								x2="119440"
								y2="14589.1"
								gradientUnits="userSpaceOnUse"
							>
								<stop stop-color="#35068C" />
								<stop offset="0.02" stop-color="#40DDDA" />
								<stop offset="0.09" stop-color="#3AAEC0" />
								<stop offset="0.17" stop-color="#3484A9" />
								<stop offset="0.26" stop-color="#2F6195" />
								<stop offset="0.35" stop-color="#2B4486" />
								<stop offset="0.44" stop-color="#282E79" />
								<stop offset="0.54" stop-color="#261E71" />
								<stop offset="0.66" stop-color="#24156C" />
								<stop offset="0.82" stop-color="#24126A" />
							</linearGradient>
							<linearGradient
								id="paint19_linear_1_31"
								x1="674.179"
								y1="362.675"
								x2="985.214"
								y2="362.675"
								gradientUnits="userSpaceOnUse"
							>
								<stop stop-color="#3671E9" />
								<stop offset="0.15" stop-color="#91A2FA" />
								<stop offset="0.33" stop-color="#8B97F1" />
								<stop offset="0.52" stop-color="#7366C8" />
								<stop offset="0.72" stop-color="#654CB3" />
								<stop offset="0.93" stop-color="#4127A7" />
								<stop offset="1" stop-color="#260672" />
							</linearGradient>
							<linearGradient
								id="paint20_linear_1_31"
								x1="22726.8"
								y1="45113.4"
								x2="85382.2"
								y2="45113.4"
								gradientUnits="userSpaceOnUse"
							>
								<stop stop-color="#42E8E0" />
								<stop offset="0.15" stop-color="#43E3E0" />
								<stop offset="0.33" stop-color="#45D5DF" />
								<stop offset="0.52" stop-color="#49BDDD" />
								<stop offset="0.72" stop-color="#4E9CDB" />
								<stop offset="0.93" stop-color="#5472D8" />
								<stop offset="1" stop-color="#5761D7" />
							</linearGradient>
							<linearGradient
								id="paint21_linear_1_31"
								x1="103213"
								y1="-22241.8"
								x2="122175"
								y2="8545.16"
								gradientUnits="userSpaceOnUse"
							>
								<stop stop-color="#654CB2" />
								<stop offset="0.02" stop-color="#40DDDA" />
								<stop offset="0.09" stop-color="#3AAEC0" />
								<stop offset="0.17" stop-color="#3484A9" />
								<stop offset="0.26" stop-color="#2F6195" />
								<stop offset="0.35" stop-color="#2B4486" />
								<stop offset="0.44" stop-color="#282E79" />
								<stop offset="0.54" stop-color="#261E71" />
								<stop offset="0.66" stop-color="#24156C" />
								<stop offset="0.82" stop-color="#24126A" />
							</linearGradient>
							<linearGradient
								id="paint22_linear_1_31"
								x1="830.442"
								y1="212.227"
								x2="908.293"
								y2="600.925"
								gradientUnits="userSpaceOnUse"
							>
								<stop stop-color="#42E8E0" />
								<stop offset="0.02" stop-color="#40DDDA" />
								<stop offset="0.09" stop-color="#3AAEC0" />
								<stop offset="0.17" stop-color="#3484A9" />
								<stop offset="0.26" stop-color="#2F6195" />
								<stop offset="0.35" stop-color="#2B4486" />
								<stop offset="0.44" stop-color="#282E79" />
								<stop offset="0.54" stop-color="#261E71" />
								<stop offset="0.66" stop-color="#24156C" />
								<stop offset="0.82" stop-color="#24126A" />
							</linearGradient>
							<linearGradient
								id="paint23_linear_1_31"
								x1="715.873"
								y1="296.03"
								x2="994.065"
								y2="296.03"
								gradientUnits="userSpaceOnUse"
							>
								<stop stop-color="#2B237C" />
								<stop offset="1" stop-color="#180D5B" />
							</linearGradient>
							<linearGradient
								id="paint24_linear_1_31"
								x1="20566.9"
								y1="28406.6"
								x2="43422.5"
								y2="28406.6"
								gradientUnits="userSpaceOnUse"
							>
								<stop stop-color="#2B237C" />
								<stop offset="1" stop-color="#180D5B" />
							</linearGradient>
							<linearGradient
								id="paint25_linear_1_31"
								x1="1635.96"
								y1="2185.27"
								x2="1640.07"
								y2="2244.98"
								gradientUnits="userSpaceOnUse"
							>
								<stop stop-color="#2B237D" />
								<stop offset="0.02" stop-color="#40DDDA" />
								<stop offset="0.09" stop-color="#3AAEC0" />
								<stop offset="0.17" stop-color="#3484A9" />
								<stop offset="0.26" stop-color="#2F6195" />
								<stop offset="0.35" stop-color="#2B4486" />
								<stop offset="0.44" stop-color="#282E79" />
								<stop offset="0.54" stop-color="#261E71" />
								<stop offset="0.66" stop-color="#24156C" />
								<stop offset="0.82" stop-color="#24126A" />
							</linearGradient>
							<linearGradient
								id="paint26_linear_1_31"
								x1="1764.55"
								y1="2106.98"
								x2="1768.53"
								y2="2166.7"
								gradientUnits="userSpaceOnUse"
							>
								<stop stop-color="#2C247E" />
								<stop offset="0.02" stop-color="#40DDDA" />
								<stop offset="0.09" stop-color="#3AAEC0" />
								<stop offset="0.17" stop-color="#3484A9" />
								<stop offset="0.26" stop-color="#2F6195" />
								<stop offset="0.35" stop-color="#2B4486" />
								<stop offset="0.44" stop-color="#282E79" />
								<stop offset="0.54" stop-color="#261E71" />
								<stop offset="0.66" stop-color="#24156C" />
								<stop offset="0.82" stop-color="#24126A" />
							</linearGradient>
							<linearGradient
								id="paint27_linear_1_31"
								x1="2065.15"
								y1="2571.07"
								x2="2072.74"
								y2="2655.26"
								gradientUnits="userSpaceOnUse"
							>
								<stop stop-color="#2B237C" />
								<stop offset="1" stop-color="#180D5B" />
							</linearGradient>
							<linearGradient
								id="paint28_linear_1_31"
								x1="3068.47"
								y1="3407.33"
								x2="3152.26"
								y2="3421.55"
								gradientUnits="userSpaceOnUse"
							>
								<stop stop-color="#2B237C" />
								<stop offset="1" stop-color="#180D5B" />
							</linearGradient>
							<linearGradient
								id="paint29_linear_1_31"
								x1="21547.3"
								y1="26289.2"
								x2="91311.6"
								y2="51600.8"
								gradientUnits="userSpaceOnUse"
							>
								<stop stop-color="#654DB3" />
								<stop offset="0.0899" stop-color="#40DDDA" />
								<stop offset="0.09" stop-color="#E9E9FE" />
								<stop offset="0.17" stop-color="#654DB3" />
								<stop offset="0.26" stop-color="#2F6195" />
								<stop offset="0.35" stop-color="#2B4486" />
								<stop offset="0.44" stop-color="#282E79" />
								<stop offset="0.54" stop-color="#261E71" />
								<stop offset="0.66" stop-color="#24156C" />
								<stop offset="0.82" stop-color="#24126A" />
							</linearGradient>
							<linearGradient
								id="paint30_linear_1_31"
								x1="3742.8"
								y1="5207.83"
								x2="3881.46"
								y2="5228.76"
								gradientUnits="userSpaceOnUse"
							>
								<stop stop-color="#2B237C" />
								<stop offset="1" stop-color="#180D5B" />
							</linearGradient>
							<linearGradient
								id="paint31_linear_1_31"
								x1="3543.49"
								y1="5362.92"
								x2="3682.15"
								y2="5383.85"
								gradientUnits="userSpaceOnUse"
							>
								<stop stop-color="#2B237C" />
								<stop offset="1" stop-color="#180D5B" />
							</linearGradient>
							<linearGradient
								id="paint32_linear_1_31"
								x1="3085.2"
								y1="5510.32"
								x2="3256.03"
								y2="5536.14"
								gradientUnits="userSpaceOnUse"
							>
								<stop stop-color="#2B237C" />
								<stop offset="1" stop-color="#180D5B" />
							</linearGradient>
							<linearGradient
								id="paint33_linear_1_31"
								x1="2155.94"
								y1="4620.31"
								x2="2180.03"
								y2="4912.35"
								gradientUnits="userSpaceOnUse"
							>
								<stop stop-color="#2C247D" />
								<stop offset="0.02" stop-color="#40DDDA" />
								<stop offset="0.09" stop-color="#3AAEC0" />
								<stop offset="0.17" stop-color="#3484A9" />
								<stop offset="0.26" stop-color="#2F6195" />
								<stop offset="0.35" stop-color="#2B4486" />
								<stop offset="0.44" stop-color="#282E79" />
								<stop offset="0.54" stop-color="#261E71" />
								<stop offset="0.66" stop-color="#24156C" />
								<stop offset="0.82" stop-color="#24126A" />
							</linearGradient>
							<linearGradient
								id="paint34_linear_1_31"
								x1="2507.09"
								y1="4878.14"
								x2="2530.01"
								y2="5179.3"
								gradientUnits="userSpaceOnUse"
							>
								<stop stop-color="#2B237C" />
								<stop offset="1" stop-color="#180D5B" />
							</linearGradient>
							<linearGradient
								id="paint35_linear_1_31"
								x1="14837.3"
								y1="14027.1"
								x2="14961.3"
								y2="17334.1"
								gradientUnits="userSpaceOnUse"
							>
								<stop stop-color="#91A2FA" />
								<stop offset="0.0199" stop-color="#91A2FA" />
								<stop offset="0.02" stop-color="#654DB3" />
								<stop offset="0.09" stop-color="#654DB3" />
								<stop offset="0.17" stop-color="#654DB3" />
								<stop offset="0.26" stop-color="#654CB3" />
								<stop offset="0.35" stop-color="#35068C" />
								<stop offset="0.44" stop-color="#35068C" />
								<stop offset="0.54" stop-color="#35068C" />
								<stop offset="0.66" stop-color="#35068C" />
								<stop offset="0.82" stop-color="#35068C" />
							</linearGradient>
							<linearGradient
								id="paint36_linear_1_31"
								x1="7.51628"
								y1="809.991"
								x2="878.035"
								y2="321.868"
								gradientUnits="userSpaceOnUse"
							>
								<stop stop-color="white" stop-opacity="0" />
								<stop
									offset="0.387874"
									stop-color="white"
									stop-opacity="0.04"
								/>
								<stop offset="1" stop-color="white" stop-opacity="0" />
							</linearGradient>
						</defs>
					</svg>